<svg width="237" height="23" viewBox="0 0 237 23" fill="none" xmlns="http://www.w3.org/2000/svg">
<g id="NORDIC ROSE">
<path d="M0.838359 19H9.26236V18.558L6.55836 18.22C5.77836 18.116 5.20636 17.518 5.20636 16.712V4.258L15.9184 19H17.0884V3.036C17.0884 2.256 17.6344 1.606 18.4144 1.502L20.3904 1.242V0.800004H11.9664V1.242L14.6704 1.58C15.4504 1.684 16.0224 2.282 16.0224 3.088V14.684L8.24836 3.764C6.09036 0.748004 3.95836 0.800004 0.318359 0.800004V1.242C1.90436 1.476 3.46436 2.074 4.14036 3.27V16.764C4.14036 17.544 3.59436 18.194 2.81436 18.298L0.838359 18.558V19Z" fill="white"/>
<path d="M35.047 19.416C40.663 19.416 44.745 15.568 44.745 9.9C44.745 4.232 40.663 0.410004 35.047 0.410004C29.431 0.410004 25.323 4.232 25.323 9.9C25.323 15.568 29.431 19.416 35.047 19.416ZM35.073 18.506C30.393 18.506 28.495 14.372 28.495 9.302C28.495 4.57001 30.497 1.32 35.021 1.32C39.597 1.32 41.547 5.376 41.547 10.29C41.547 15.178 39.779 18.506 35.073 18.506Z" fill="white"/>
<path d="M58.5988 10.212H58.8068C61.4848 17.622 66.2688 20.95 68.8948 22.588C65.2028 17.544 63.4608 14.216 61.7968 9.97801C64.9428 9.406 66.5808 7.924 66.5808 5.376C66.5808 2.1 63.7208 0.800004 58.3388 0.800004H50.2008V1.242L51.8648 1.45C52.6448 1.554 53.2168 2.15201 53.2168 2.958V16.842C53.2168 17.648 52.6448 18.246 51.8648 18.35L50.2008 18.558V19H59.2488V18.558L57.5848 18.35C56.8048 18.246 56.2328 17.648 56.2328 16.842V10.212H58.5988ZM56.2328 1.71H58.9888C62.4208 1.71 63.8248 2.932 63.8248 5.506C63.8248 8.08 62.2388 9.302 58.5728 9.302H56.2328V1.71Z" fill="white"/>
<path d="M73.8344 19H82.7264C89.1744 19 93.3084 15.724 93.3084 9.952C93.3084 3.894 89.1744 0.800004 82.7264 0.800004H73.8344V1.242L75.4984 1.45C76.2784 1.554 76.8504 2.15201 76.8504 2.958V16.842C76.8504 17.648 76.2784 18.246 75.4984 18.35L73.8344 18.558V19ZM81.2184 18.09C80.4384 18.09 79.8664 17.648 79.8664 16.842V1.71H82.3104C86.1584 1.71 90.1624 3.348 90.1624 9.952C90.1624 16.062 86.6264 18.09 82.3104 18.09H81.2184Z" fill="white"/>
<path d="M99.0168 19H108.065V18.558L106.401 18.35C105.621 18.246 105.049 17.648 105.049 16.842V2.958C105.049 2.15201 105.621 1.554 106.401 1.45L108.065 1.242V0.800004H99.0168V1.242L100.681 1.45C101.461 1.554 102.033 2.15201 102.033 2.958V16.842C102.033 17.648 101.461 18.246 100.681 18.35L99.0168 18.558V19Z" fill="white"/>
<path d="M123.5 19.39C126.516 19.39 129.74 18.246 131.846 16.27V14.71C129.818 16.608 127.036 17.57 124.28 17.57C120.302 17.57 117.052 14.788 117.052 9.9C117.052 4.778 119.288 1.32 123.5 1.32C127.296 1.32 129.298 4.518 128.83 10.134H129.532L131.092 3.192C129.61 1.502 125.58 0.410004 123.5 0.410004C117.624 0.410004 113.776 4.232 113.776 9.9C113.776 15.594 117.676 19.39 123.5 19.39Z" fill="white"/>
<path d="M157.419 10.212H157.627C160.305 17.622 165.089 20.95 167.715 22.588C164.023 17.544 162.281 14.216 160.617 9.97801C163.763 9.406 165.401 7.924 165.401 5.376C165.401 2.1 162.541 0.800004 157.159 0.800004H149.021V1.242L150.685 1.45C151.465 1.554 152.037 2.15201 152.037 2.958V16.842C152.037 17.648 151.465 18.246 150.685 18.35L149.021 18.558V19H158.069V18.558L156.405 18.35C155.625 18.246 155.053 17.648 155.053 16.842V10.212H157.419ZM155.053 1.71H157.809C161.241 1.71 162.645 2.932 162.645 5.506C162.645 8.08 161.059 9.302 157.393 9.302H155.053V1.71Z" fill="white"/>
<path d="M182.099 19.416C187.715 19.416 191.797 15.568 191.797 9.9C191.797 4.232 187.715 0.410004 182.099 0.410004C176.483 0.410004 172.375 4.232 172.375 9.9C172.375 15.568 176.483 19.416 182.099 19.416ZM182.125 18.506C177.445 18.506 175.547 14.372 175.547 9.302C175.547 4.57001 177.549 1.32 182.073 1.32C186.649 1.32 188.599 5.376 188.599 10.29C188.599 15.178 186.831 18.506 182.125 18.506Z" fill="white"/>
<path d="M205.899 19.39C209.799 19.39 212.555 17.414 212.555 14.554C212.555 7.37801 201.973 8.106 201.973 4.518C201.973 2.672 203.663 1.32 206.445 1.32C209.383 1.32 210.761 3.27 211.047 7.56H211.749L212.009 1.658C210.475 0.982005 208.525 0.410004 206.445 0.410004C202.389 0.410004 199.867 2.23 199.867 4.778C199.867 11.772 210.475 10.784 210.475 14.944C210.475 17.024 208.551 18.48 206.159 18.48C203.065 18.48 201.505 16.348 200.933 11.538H200.231L199.711 17.7C201.505 18.688 203.169 19.39 205.899 19.39Z" fill="white"/>
<path d="M219.059 19H235.907L236.687 12.864H236.245C234.659 16.972 233.281 18.09 230.967 18.09H226.443C225.663 18.09 225.091 17.648 225.091 16.842V10.212H231.097C231.799 10.212 232.501 10.706 232.553 11.382L232.839 14.424H233.281V5.35H232.839L232.553 8.132C232.475 8.834 231.799 9.302 231.097 9.302H225.091V1.71H230.447C232.371 1.71 234.321 2.62 235.361 6.962H235.803L235.283 0.800004H219.059V1.242L220.723 1.45C221.503 1.554 222.075 2.15201 222.075 2.958V16.842C222.075 17.648 221.503 18.246 220.723 18.35L219.059 18.558V19Z" fill="white"/>
</g>
</svg>
